
<svg width="214" height="35" viewBox="0 0 214 35" fill="none" xmlns="http://www.w3.org/2000/svg">
<path d="M34.9523 32.7703V2.97327H54.6812V8.16737H41.2522V15.2674H53.3718V20.4615H41.2522V32.7703H34.9523ZM59.943 32.7703V2.97327H66.2428V27.5762H79.0171V32.7703H59.943ZM90.5133 2.97327V32.7703H84.2134V2.97327H90.5133ZM96.7207 32.7703V2.97327H108.477C110.737 2.97327 112.662 3.4049 114.253 4.26816C115.843 5.12172 117.056 6.30991 117.89 7.83274C118.734 9.34587 119.156 11.0918 119.156 13.0705C119.156 15.0492 118.729 16.7951 117.875 18.3082C117.022 19.8214 115.785 20.9999 114.165 21.8437C112.555 22.6876 110.606 23.1095 108.317 23.1095H100.824V18.0609H107.298C108.511 18.0609 109.51 17.8524 110.295 17.4353C111.091 17.0085 111.682 16.4217 112.07 15.6748C112.468 14.9183 112.667 14.0501 112.667 13.0705C112.667 12.0811 112.468 11.2179 112.07 10.4807C111.682 9.73385 111.091 9.15672 110.295 8.74934C109.5 8.33226 108.491 8.12372 107.269 8.12372H103.021V32.7703H96.7207ZM124.272 32.7703V2.97327H136.028C138.288 2.97327 140.213 3.4049 141.804 4.26816C143.395 5.12172 144.607 6.30991 145.441 7.83274C146.285 9.34587 146.707 11.0918 146.707 13.0705C146.707 15.0492 146.28 16.7951 145.427 18.3082C144.573 19.8214 143.336 20.9999 141.717 21.8437C140.107 22.6876 138.157 23.1095 135.868 23.1095H128.375V18.0609H134.849C136.062 18.0609 137.061 17.8524 137.847 17.4353C138.642 17.0085 139.234 16.4217 139.622 15.6748C140.019 14.9183 140.218 14.0501 140.218 13.0705C140.218 12.0811 140.019 11.2179 139.622 10.4807C139.234 9.73385 138.642 9.15672 137.847 8.74934C137.051 8.33226 136.042 8.12372 134.82 8.12372H130.572V32.7703H124.272ZM151.823 32.7703V2.97327H171.901V8.16737H158.123V15.2674H170.868V20.4615H158.123V27.5762H171.96V32.7703H151.823ZM177.934 32.7703V2.97327H189.69C191.94 2.97327 193.861 3.3758 195.452 4.18086C197.052 4.97622 198.269 6.10622 199.104 7.57085C199.947 9.02578 200.369 10.7377 200.369 12.7068C200.369 14.6855 199.943 16.3877 199.089 17.8136C198.235 19.2297 196.999 20.316 195.379 21.0726C193.769 21.8292 191.819 22.2075 189.53 22.2075H181.659V17.1443H188.512C189.714 17.1443 190.713 16.9794 191.509 16.6496C192.304 16.3198 192.896 15.8252 193.284 15.1656C193.681 14.506 193.88 13.6864 193.88 12.7068C193.88 11.7174 193.681 10.8832 193.284 10.2043C192.896 9.52531 192.299 9.01123 191.494 8.66205C190.699 8.30317 189.695 8.12372 188.483 8.12372H184.234V32.7703H177.934ZM194.026 19.2103L201.431 32.7703H194.477L187.231 19.2103H194.026Z" fill="black"/>
<path d="M3 4.86736C1.49149 4.86736 0.268609 6.09025 0.268609 7.59875C0.268609 9.10726 1.49149 10.3301 3 10.3301V4.86736ZM3 10.3301H29.6311V4.86736H3V10.3301Z" fill="black"/>
<path d="M3 14.4273C1.49149 14.4273 0.268609 15.6502 0.268609 17.1587C0.268608 18.6672 1.49149 19.8901 3 19.8901L3 14.4273ZM3 19.8901L20.754 19.8901L20.754 14.4273L3 14.4273L3 19.8901Z" fill="black"/>
<path d="M4 24.67C2.49149 24.67 1.26861 25.8929 1.26861 27.4014C1.26861 28.9099 2.49149 30.1328 4 30.1328L4 24.67ZM4 30.1328L11.5113 30.1328L11.5113 24.67L4 24.67L4 30.1328Z" fill="black"/>
</svg>
